<?xml version="1.0" encoding="utf-8"?>
<!-- Generator: Adobe Illustrator 22.0.1, SVG Export Plug-In . SVG Version: 6.00 Build 0)  -->
<svg version="1.1" id="Layer_1" xmlns="http://www.w3.org/2000/svg" xmlns:xlink="http://www.w3.org/1999/xlink" x="0px" y="0px"
	 viewBox="0 0 575 57.8" style="enable-background:new 0 0 575 57.8;" xml:space="preserve">
<style type="text/css">
	.st0{fill:#FFFFFF;}
</style>
<g>
	<path class="st0" d="M209.1,57.5l-9.4-37.9l-9.4,37.9h-11.5L164.5-0.1h12.3l7.8,42.1l10.5-42.1h9.1L214.6,42l7.8-42.1h11.8
		l-14.3,57.6H209.1z"/>
	<path class="st0" d="M240.3,15.2h8.5v42.3h-8.5V15.2z"/>
	<path class="st0" d="M274.5,23v34.5H266V23h-11.1v-7.9h30.6V23H274.5z"/>
	<path class="st0" d="M291.6,15.2h8.5v16.7h14.6V15.2h8.5v42.3h-8.5V39.9h-14.6v17.6h-8.5C291.6,57.5,291.6,15.2,291.6,15.2z"/>
	<path class="st0" d="M364.1-0.1c6.7,0,11.4,4.6,11.4,11.4v34.9c0,6.7-4.6,11.4-11.4,11.4h-30V-0.1H364.1z M361.2,46.6
		c1.8,0,2.7-1,2.7-2.7V13.5c0-1.8-1-2.7-2.7-2.7h-15.6v35.8H361.2z"/>
	<path class="st0" d="M412.8,15.2v8h-19.3v8.7h15.6v8h-15.6v9.6h19.2v8H385V15.2H412.8z"/>
	<path class="st0" d="M439.5,24.9c0-1.3-0.7-2-2-2H429c-1.3,0-2,0.7-2,2v4c0,1.3,0.7,1.7,2,2l10.9,2.4c4.6,1,8.5,3.8,8.5,8.5v7.6
		c0,4.9-3.4,8.4-8.4,8.4h-13.2c-4.9,0-8.4-3.4-8.4-8.4V44h8.2v3.8c0,1.3,0.7,2,2,2h9.2c1.3,0,2-0.7,2-2v-4.5c0-1.3-0.7-1.7-2-2
		l-10.7-2.4c-4.6-1-8.5-3.8-8.5-8.5v-7.2c0-4.9,3.4-8.4,8.4-8.4h12.5c4.9,0,8.4,3.4,8.4,8.4v4.9h-8.4V24.9z"/>
	<path class="st0" d="M456.5,15.2h8.5v42.3h-8.5V15.2z"/>
	<path class="st0" d="M495.4,24.9c0-1.3-0.7-2-2-2h-9.7c-1.3,0-2,0.7-2,2v22.8c0,1.3,0.7,2,2,2h9.7c1.3,0,2-0.7,2-2v-6.3h-7.8v-7.6
		h16.2v15.6c0,4.9-3.4,8.4-8.4,8.4h-13.9c-4.9,0-8.4-3.4-8.4-8.4V23.3c0-4.9,3.4-8.4,8.4-8.4h13.9c4.9,0,8.4,3.4,8.4,8.4v5.5h-8.5
		L495.4,24.9L495.4,24.9z"/>
	<path class="st0" d="M544.7,15.2v42.3h-9.2l-15.6-28.9v28.9H512V15.2h9.1l15.6,28.9V15.2H544.7z"/>
	<path class="st0" d="M552.5,57.5v-8.6h8.2v8.6H552.5z"/>
</g>
<g>
	<path class="st0" d="M27.7,0c5.2,0,8.8,3.6,8.8,8.8v6.3c0,2.7-1.1,5-3.9,6.7c3.1,1.5,4.4,4,4.4,6.7v7.3c0,5.2-3.6,8.8-8.8,8.8H5.1
		V0H27.7z M25.5,17.9c1.6,0,2.1-0.4,2.1-2.1v-5.3c0-1.4-0.7-2.1-2.1-2.1H14.1v9.6H25.5z M26,36.4c1.4,0,2.1-0.7,2.1-2.1v-6.5
		c0-1.9-1.1-2-2.9-2H14.1v10.6H26z"/>
	<path class="st0" d="M54.4,0v36.2h18.7v8.4H45.4V0H54.4z"/>
	<path class="st0" d="M101.6-0.2c5.2,0,8.8,3.6,8.8,8.8v27.6c0,5.2-3.6,8.8-8.8,8.8h-15c-5.2,0-8.8-3.6-8.8-8.8V8.6
		c0-5.2,3.6-8.8,8.8-8.8H101.6z M101.5,10.3c0-1.4-0.7-2.1-2.1-2.1H88.9c-1.4,0-2.1,0.7-2.1,2.1v24.1c0,1.4,0.7,2.1,2.1,2.1h10.5
		c1.4,0,2.1-0.7,2.1-2.1V10.3z"/>
	<path class="st0" d="M141.5,10.3c0-1.4-0.7-2.1-2.1-2.1h-10.2c-1.4,0-2.1,0.7-2.1,2.1v24.1c0,1.4,0.7,2.1,2.1,2.1h10.2
		c1.4,0,2.1-0.7,2.1-2.1v-6.6h-8.2v-8.1h17.1v16.4c0,5.2-3.6,8.8-8.8,8.8h-14.7c-5.2,0-8.8-3.6-8.8-8.8V8.6c0-5.2,3.6-8.8,8.8-8.8
		h14.7c5.2,0,8.8,3.6,8.8,8.8v5.8h-8.9V10.3z"/>
</g>
<rect x="0.2" y="52.2" class="st0" width="179.5" height="5.4"/>
</svg>
